<svg width="80" height="80" viewBox="0 0 80 80" fill="none" xmlns="http://www.w3.org/2000/svg">
<rect width="80" height="80" rx="15" fill="#0F0E0E"/>
<circle cx="52" cy="28" r="25" fill="white"/>
<g filter="url(#filter0_d_116_284)">
<mask id="path-3-outside-1_116_284" maskUnits="userSpaceOnUse" x="36" y="11" width="32" height="34" fill="black">
<rect fill="white" x="36" y="11" width="32" height="34"/>
<path d="M66.0384 23.5213H58.581C58.4815 22.7557 58.2777 22.0646 57.9695 21.4482C57.6612 20.8317 57.2536 20.3047 56.7464 19.8672C56.2393 19.4297 55.6378 19.0966 54.9418 18.8679C54.2557 18.6293 53.495 18.5099 52.6598 18.5099C51.1783 18.5099 49.9006 18.8729 48.8267 19.5987C47.7628 20.3246 46.9425 21.3736 46.3658 22.7457C45.799 24.1179 45.5156 25.7784 45.5156 27.7273C45.5156 29.7557 45.804 31.456 46.3807 32.8281C46.9673 34.1903 47.7876 35.2195 48.8416 35.9155C49.9055 36.6016 51.1634 36.9446 52.6151 36.9446C53.4304 36.9446 54.1712 36.8402 54.8374 36.6314C55.5135 36.4226 56.1051 36.1193 56.6122 35.7216C57.1293 35.3139 57.5518 34.8217 57.88 34.245C58.218 33.6584 58.4517 32.9972 58.581 32.2614L66.0384 32.3061C65.9091 33.6584 65.5163 34.9908 64.8601 36.3033C64.2138 37.6158 63.3239 38.8139 62.1903 39.8977C61.0568 40.9716 59.6747 41.8267 58.044 42.4631C56.4233 43.0994 54.5639 43.4176 52.4659 43.4176C49.7017 43.4176 47.2259 42.8111 45.0384 41.598C42.8608 40.375 41.1406 38.5952 39.8778 36.2585C38.6151 33.9219 37.9837 31.0781 37.9837 27.7273C37.9837 24.3665 38.625 21.5178 39.9077 19.1811C41.1903 16.8445 42.9254 15.0696 45.1129 13.8565C47.3004 12.6435 49.7514 12.0369 52.4659 12.0369C54.3153 12.0369 56.0256 12.2955 57.5966 12.8125C59.1676 13.3196 60.5497 14.0653 61.7429 15.0497C62.9361 16.0241 63.9055 17.2223 64.6513 18.6442C65.397 20.0661 65.8594 21.6918 66.0384 23.5213Z"/>
</mask>
<path d="M66.0384 23.5213H58.581C58.4815 22.7557 58.2777 22.0646 57.9695 21.4482C57.6612 20.8317 57.2536 20.3047 56.7464 19.8672C56.2393 19.4297 55.6378 19.0966 54.9418 18.8679C54.2557 18.6293 53.495 18.5099 52.6598 18.5099C51.1783 18.5099 49.9006 18.8729 48.8267 19.5987C47.7628 20.3246 46.9425 21.3736 46.3658 22.7457C45.799 24.1179 45.5156 25.7784 45.5156 27.7273C45.5156 29.7557 45.804 31.456 46.3807 32.8281C46.9673 34.1903 47.7876 35.2195 48.8416 35.9155C49.9055 36.6016 51.1634 36.9446 52.6151 36.9446C53.4304 36.9446 54.1712 36.8402 54.8374 36.6314C55.5135 36.4226 56.1051 36.1193 56.6122 35.7216C57.1293 35.3139 57.5518 34.8217 57.88 34.245C58.218 33.6584 58.4517 32.9972 58.581 32.2614L66.0384 32.3061C65.9091 33.6584 65.5163 34.9908 64.8601 36.3033C64.2138 37.6158 63.3239 38.8139 62.1903 39.8977C61.0568 40.9716 59.6747 41.8267 58.044 42.4631C56.4233 43.0994 54.5639 43.4176 52.4659 43.4176C49.7017 43.4176 47.2259 42.8111 45.0384 41.598C42.8608 40.375 41.1406 38.5952 39.8778 36.2585C38.6151 33.9219 37.9837 31.0781 37.9837 27.7273C37.9837 24.3665 38.625 21.5178 39.9077 19.1811C41.1903 16.8445 42.9254 15.0696 45.1129 13.8565C47.3004 12.6435 49.7514 12.0369 52.4659 12.0369C54.3153 12.0369 56.0256 12.2955 57.5966 12.8125C59.1676 13.3196 60.5497 14.0653 61.7429 15.0497C62.9361 16.0241 63.9055 17.2223 64.6513 18.6442C65.397 20.0661 65.8594 21.6918 66.0384 23.5213Z" fill="#EE6619"/>
<path d="M66.0384 23.5213V24.5213H67.141L67.0336 23.4239L66.0384 23.5213ZM58.581 23.5213L57.5893 23.6501L57.7024 24.5213H58.581V23.5213ZM57.9695 21.4482L57.075 21.8954V21.8954L57.9695 21.4482ZM56.7465 19.8672L57.3997 19.11L56.7465 19.8672ZM54.9418 18.8679L54.6132 19.8124L54.6214 19.8152L54.6296 19.8179L54.9418 18.8679ZM48.8267 19.5987L48.2667 18.7702L48.2631 18.7727L48.8267 19.5987ZM46.3658 22.7457L45.4439 22.3583L45.4415 22.364L46.3658 22.7457ZM46.3807 32.8281L45.4588 33.2156L45.4622 33.2237L46.3807 32.8281ZM48.8416 35.9155L48.2905 36.75L48.2997 36.7559L48.8416 35.9155ZM54.8374 36.6314L54.5423 35.6759L54.5383 35.6772L54.8374 36.6314ZM56.6122 35.7216L57.2294 36.5084L57.2314 36.5069L56.6122 35.7216ZM57.88 34.245L57.0135 33.7457L57.0108 33.7505L57.88 34.245ZM58.581 32.2614L58.587 31.2614L57.7422 31.2563L57.5961 32.0883L58.581 32.2614ZM66.0384 32.3061L67.0338 32.4013L67.1379 31.3127L66.0444 31.3061L66.0384 32.3061ZM64.8601 36.3033L63.9656 35.856L63.963 35.8615L64.8601 36.3033ZM62.1903 39.8977L62.8781 40.6237L62.8814 40.6205L62.1903 39.8977ZM58.044 42.4631L57.6805 41.5315L57.6786 41.5322L58.044 42.4631ZM45.0384 41.598L44.5487 42.4699L44.5534 42.4725L45.0384 41.598ZM39.8778 36.2585L40.7576 35.7831L39.8778 36.2585ZM39.9077 19.1811L39.0311 18.6999L39.0311 18.6999L39.9077 19.1811ZM57.5966 12.8125L57.284 13.7624L57.2894 13.7642L57.5966 12.8125ZM61.7429 15.0497L61.1065 15.8211L61.1104 15.8242L61.7429 15.0497ZM66.0384 22.5213H58.581V24.5213H66.0384V22.5213ZM59.5726 23.3925C59.4605 22.5293 59.2277 21.7286 58.8639 21.0009L57.075 21.8954C57.3277 22.4006 57.5025 22.9821 57.5893 23.6501L59.5726 23.3925ZM58.8639 21.0009C58.4983 20.2697 58.0098 19.6364 57.3997 19.11L56.0932 20.6243C56.4973 20.973 56.8242 21.3936 57.075 21.8954L58.8639 21.0009ZM57.3997 19.11C56.7837 18.5786 56.0634 18.1838 55.2539 17.9179L54.6296 19.8179C55.2122 20.0093 55.695 20.2808 56.0932 20.6243L57.3997 19.11ZM55.2703 17.9234C54.4641 17.643 53.5904 17.5099 52.6598 17.5099V19.5099C53.3997 19.5099 54.0473 19.6155 54.6132 19.8124L55.2703 17.9234ZM52.6598 17.5099C51.0081 17.5099 49.5288 17.9172 48.2667 18.7702L49.3867 20.4272C50.2724 19.8286 51.3484 19.5099 52.6598 19.5099V17.5099ZM48.2631 18.7727C47.0164 19.6232 46.0834 20.8368 45.4439 22.3583L47.2877 23.1332C47.8016 21.9104 48.5092 21.0259 49.3903 20.4248L48.2631 18.7727ZM45.4415 22.364C44.8118 23.8886 44.5156 25.6863 44.5156 27.7273H46.5156C46.5156 25.8705 46.7862 24.3472 47.29 23.1275L45.4415 22.364ZM44.5156 27.7273C44.5156 29.8434 44.8155 31.6849 45.4588 33.2156L47.3026 32.4407C46.7925 31.227 46.5156 29.6679 46.5156 27.7273H44.5156ZM45.4622 33.2237C46.1123 34.733 47.0473 35.9289 48.2906 36.7499L49.3927 35.081C48.528 34.51 47.8224 33.6476 47.2991 32.4326L45.4622 33.2237ZM48.2997 36.7559C49.5479 37.5608 51 37.9446 52.6151 37.9446V35.9446C51.3267 35.9446 50.2632 35.6423 49.3836 35.0751L48.2997 36.7559ZM52.6151 37.9446C53.5152 37.9446 54.3588 37.8294 55.1364 37.5856L54.5383 35.6772C53.9835 35.851 53.3456 35.9446 52.6151 35.9446V37.9446ZM55.1324 37.5869C55.9139 37.3455 56.6171 36.9886 57.2294 36.5084L55.9951 34.9347C55.5931 35.25 55.1131 35.4996 54.5423 35.6759L55.1324 37.5869ZM57.2314 36.5069C57.8505 36.0187 58.3577 35.4275 58.7491 34.7396L57.0108 33.7505C56.746 34.216 56.408 34.6092 55.9931 34.9363L57.2314 36.5069ZM58.7464 34.7443C59.1484 34.0468 59.4185 33.2732 59.5659 32.4344L57.5961 32.0883C57.4849 32.7211 57.2877 33.27 57.0135 33.7457L58.7464 34.7443ZM58.575 33.2613L66.0324 33.3061L66.0444 31.3061L58.587 31.2614L58.575 33.2613ZM65.0429 32.211C64.9263 33.4311 64.5713 34.6448 63.9657 35.8561L65.7545 36.7505C66.4614 35.3367 66.8919 33.8856 67.0338 32.4013L65.0429 32.211ZM63.963 35.8615C63.372 37.0617 62.5543 38.1662 61.4993 39.1749L62.8814 40.6205C64.0934 39.4617 65.0556 38.1699 65.7572 36.745L63.963 35.8615ZM61.5026 39.1718C60.4735 40.1467 59.2054 40.9364 57.6805 41.5315L58.4076 43.3946C60.1441 42.717 61.6401 41.7965 62.8781 40.6237L61.5026 39.1718ZM57.6786 41.5322C56.1954 42.1146 54.4638 42.4176 52.4659 42.4176V44.4176C54.664 44.4176 56.6512 44.0843 58.4095 43.3939L57.6786 41.5322ZM52.4659 42.4176C49.8532 42.4176 47.5473 41.8458 45.5233 40.7235L44.5534 42.4725C46.9044 43.7763 49.5503 44.4176 52.4659 44.4176V42.4176ZM45.528 40.7261C43.526 39.6017 41.9364 37.9644 40.7576 35.7831L38.9981 36.734C40.3448 39.2259 42.1956 41.1483 44.5487 42.4699L45.528 40.7261ZM40.7576 35.7831C39.5917 33.6258 38.9837 30.9547 38.9837 27.7273H36.9837C36.9837 31.2016 37.6384 34.2179 38.9981 36.734L40.7576 35.7831ZM38.9837 27.7273C38.9837 24.4917 39.601 21.8179 40.7843 19.6623L39.0311 18.6999C37.649 21.2176 36.9837 24.2413 36.9837 27.7273H38.9837ZM40.7843 19.6623C41.9824 17.4798 43.5864 15.8465 45.5979 14.7311L44.628 12.982C42.2644 14.2927 40.3983 16.2092 39.0311 18.6999L40.7843 19.6623ZM45.5979 14.7311C47.6245 13.6072 49.9062 13.0369 52.4659 13.0369V11.0369C49.5966 11.0369 46.9763 11.6797 44.628 12.982L45.5979 14.7311ZM52.4659 13.0369C54.2216 13.0369 55.825 13.2822 57.284 13.7624L57.9092 11.8626C56.2261 11.3087 54.4091 11.0369 52.4659 11.0369V13.0369ZM57.2894 13.7642C58.7485 14.2351 60.0171 14.9223 61.1065 15.8211L62.3793 14.2783C61.0823 13.2084 59.5868 12.4041 57.9038 11.8608L57.2894 13.7642ZM61.1104 15.8242C62.1948 16.7098 63.0799 17.801 63.7657 19.1086L65.5369 18.1797C64.7312 16.6436 63.6774 15.3385 62.3754 14.2752L61.1104 15.8242ZM63.7657 19.1086C64.4435 20.401 64.8749 21.899 65.0431 23.6187L67.0336 23.4239C66.8439 21.4845 66.3505 19.7311 65.5369 18.1797L63.7657 19.1086Z" fill="black" mask="url(#path-3-outside-1_116_284)"/>
<path d="M66.0384 23.5213V24.5213H67.141L67.0336 23.4239L66.0384 23.5213ZM58.581 23.5213L57.5893 23.6501L57.7024 24.5213H58.581V23.5213ZM57.9695 21.4482L57.075 21.8954V21.8954L57.9695 21.4482ZM56.7465 19.8672L57.3997 19.11L56.7465 19.8672ZM54.9418 18.8679L54.6132 19.8124L54.6214 19.8152L54.6296 19.8179L54.9418 18.8679ZM48.8267 19.5987L48.2667 18.7702L48.2631 18.7727L48.8267 19.5987ZM46.3658 22.7457L45.4439 22.3583L45.4415 22.364L46.3658 22.7457ZM46.3807 32.8281L45.4588 33.2156L45.4622 33.2237L46.3807 32.8281ZM48.8416 35.9155L48.2905 36.75L48.2997 36.7559L48.8416 35.9155ZM54.8374 36.6314L54.5423 35.6759L54.5383 35.6772L54.8374 36.6314ZM56.6122 35.7216L57.2294 36.5084L57.2314 36.5069L56.6122 35.7216ZM57.88 34.245L57.0135 33.7457L57.0108 33.7505L57.88 34.245ZM58.581 32.2614L58.587 31.2614L57.7422 31.2563L57.5961 32.0883L58.581 32.2614ZM66.0384 32.3061L67.0338 32.4013L67.1379 31.3127L66.0444 31.3061L66.0384 32.3061ZM64.8601 36.3033L63.9656 35.856L63.963 35.8615L64.8601 36.3033ZM62.1903 39.8977L62.8781 40.6237L62.8814 40.6205L62.1903 39.8977ZM58.044 42.4631L57.6805 41.5315L57.6786 41.5322L58.044 42.4631ZM45.0384 41.598L44.5487 42.4699L44.5534 42.4725L45.0384 41.598ZM39.8778 36.2585L40.7576 35.7831L39.8778 36.2585ZM39.9077 19.1811L39.0311 18.6999L39.0311 18.6999L39.9077 19.1811ZM57.5966 12.8125L57.284 13.7624L57.2894 13.7642L57.5966 12.8125ZM61.7429 15.0497L61.1065 15.8211L61.1104 15.8242L61.7429 15.0497ZM66.0384 22.5213H58.581V24.5213H66.0384V22.5213ZM59.5726 23.3925C59.4605 22.5293 59.2277 21.7286 58.8639 21.0009L57.075 21.8954C57.3277 22.4006 57.5025 22.9821 57.5893 23.6501L59.5726 23.3925ZM58.8639 21.0009C58.4983 20.2697 58.0098 19.6364 57.3997 19.11L56.0932 20.6243C56.4973 20.973 56.8242 21.3936 57.075 21.8954L58.8639 21.0009ZM57.3997 19.11C56.7837 18.5786 56.0634 18.1838 55.2539 17.9179L54.6296 19.8179C55.2122 20.0093 55.695 20.2808 56.0932 20.6243L57.3997 19.11ZM55.2703 17.9234C54.4641 17.643 53.5904 17.5099 52.6598 17.5099V19.5099C53.3997 19.5099 54.0473 19.6155 54.6132 19.8124L55.2703 17.9234ZM52.6598 17.5099C51.0081 17.5099 49.5288 17.9172 48.2667 18.7702L49.3867 20.4272C50.2724 19.8286 51.3484 19.5099 52.6598 19.5099V17.5099ZM48.2631 18.7727C47.0164 19.6232 46.0834 20.8368 45.4439 22.3583L47.2877 23.1332C47.8016 21.9104 48.5092 21.0259 49.3903 20.4248L48.2631 18.7727ZM45.4415 22.364C44.8118 23.8886 44.5156 25.6863 44.5156 27.7273H46.5156C46.5156 25.8705 46.7862 24.3472 47.29 23.1275L45.4415 22.364ZM44.5156 27.7273C44.5156 29.8434 44.8155 31.6849 45.4588 33.2156L47.3026 32.4407C46.7925 31.227 46.5156 29.6679 46.5156 27.7273H44.5156ZM45.4622 33.2237C46.1123 34.733 47.0473 35.9289 48.2906 36.7499L49.3927 35.081C48.528 34.51 47.8224 33.6476 47.2991 32.4326L45.4622 33.2237ZM48.2997 36.7559C49.5479 37.5608 51 37.9446 52.6151 37.9446V35.9446C51.3267 35.9446 50.2632 35.6423 49.3836 35.0751L48.2997 36.7559ZM52.6151 37.9446C53.5152 37.9446 54.3588 37.8294 55.1364 37.5856L54.5383 35.6772C53.9835 35.851 53.3456 35.9446 52.6151 35.9446V37.9446ZM55.1324 37.5869C55.9139 37.3455 56.6171 36.9886 57.2294 36.5084L55.9951 34.9347C55.5931 35.25 55.1131 35.4996 54.5423 35.6759L55.1324 37.5869ZM57.2314 36.5069C57.8505 36.0187 58.3577 35.4275 58.7491 34.7396L57.0108 33.7505C56.746 34.216 56.408 34.6092 55.9931 34.9363L57.2314 36.5069ZM58.7464 34.7443C59.1484 34.0468 59.4185 33.2732 59.5659 32.4344L57.5961 32.0883C57.4849 32.7211 57.2877 33.27 57.0135 33.7457L58.7464 34.7443ZM58.575 33.2613L66.0324 33.3061L66.0444 31.3061L58.587 31.2614L58.575 33.2613ZM65.0429 32.211C64.9263 33.4311 64.5713 34.6448 63.9657 35.8561L65.7545 36.7505C66.4614 35.3367 66.8919 33.8856 67.0338 32.4013L65.0429 32.211ZM63.963 35.8615C63.372 37.0617 62.5543 38.1662 61.4993 39.1749L62.8814 40.6205C64.0934 39.4617 65.0556 38.1699 65.7572 36.745L63.963 35.8615ZM61.5026 39.1718C60.4735 40.1467 59.2054 40.9364 57.6805 41.5315L58.4076 43.3946C60.1441 42.717 61.6401 41.7965 62.8781 40.6237L61.5026 39.1718ZM57.6786 41.5322C56.1954 42.1146 54.4638 42.4176 52.4659 42.4176V44.4176C54.664 44.4176 56.6512 44.0843 58.4095 43.3939L57.6786 41.5322ZM52.4659 42.4176C49.8532 42.4176 47.5473 41.8458 45.5233 40.7235L44.5534 42.4725C46.9044 43.7763 49.5503 44.4176 52.4659 44.4176V42.4176ZM45.528 40.7261C43.526 39.6017 41.9364 37.9644 40.7576 35.7831L38.9981 36.734C40.3448 39.2259 42.1956 41.1483 44.5487 42.4699L45.528 40.7261ZM40.7576 35.7831C39.5917 33.6258 38.9837 30.9547 38.9837 27.7273H36.9837C36.9837 31.2016 37.6384 34.2179 38.9981 36.734L40.7576 35.7831ZM38.9837 27.7273C38.9837 24.4917 39.601 21.8179 40.7843 19.6623L39.0311 18.6999C37.649 21.2176 36.9837 24.2413 36.9837 27.7273H38.9837ZM40.7843 19.6623C41.9824 17.4798 43.5864 15.8465 45.5979 14.7311L44.628 12.982C42.2644 14.2927 40.3983 16.2092 39.0311 18.6999L40.7843 19.6623ZM45.5979 14.7311C47.6245 13.6072 49.9062 13.0369 52.4659 13.0369V11.0369C49.5966 11.0369 46.9763 11.6797 44.628 12.982L45.5979 14.7311ZM52.4659 13.0369C54.2216 13.0369 55.825 13.2822 57.284 13.7624L57.9092 11.8626C56.2261 11.3087 54.4091 11.0369 52.4659 11.0369V13.0369ZM57.2894 13.7642C58.7485 14.2351 60.0171 14.9223 61.1065 15.8211L62.3793 14.2783C61.0823 13.2084 59.5868 12.4041 57.9038 11.8608L57.2894 13.7642ZM61.1104 15.8242C62.1948 16.7098 63.0799 17.801 63.7657 19.1086L65.5369 18.1797C64.7312 16.6436 63.6774 15.3385 62.3754 14.2752L61.1104 15.8242ZM63.7657 19.1086C64.4435 20.401 64.8749 21.899 65.0431 23.6187L67.0336 23.4239C66.8439 21.4845 66.3505 19.7311 65.5369 18.1797L63.7657 19.1086Z" fill="black" fill-opacity="0.2" mask="url(#path-3-outside-1_116_284)"/>
</g>
<path d="M23.973 66.5455C23.973 67.7351 23.7475 68.7472 23.2965 69.5817C22.8491 70.4162 22.2383 71.0536 21.4641 71.494C20.6935 71.9308 19.8271 72.1491 18.8647 72.1491C17.8952 72.1491 17.0252 71.929 16.2546 71.4886C15.484 71.0483 14.875 70.4109 14.4276 69.5763C13.9801 68.7418 13.7564 67.7315 13.7564 66.5455C13.7564 65.3558 13.9801 64.3438 14.4276 63.5092C14.875 62.6747 15.484 62.0391 16.2546 61.6023C17.0252 61.1619 17.8952 60.9418 18.8647 60.9418C19.8271 60.9418 20.6935 61.1619 21.4641 61.6023C22.2383 62.0391 22.8491 62.6747 23.2965 63.5092C23.7475 64.3438 23.973 65.3558 23.973 66.5455ZM21.6346 66.5455C21.6346 65.7749 21.5192 65.125 21.2884 64.5959C21.0611 64.0668 20.7397 63.6655 20.3242 63.392C19.9087 63.1186 19.4222 62.9819 18.8647 62.9819C18.3072 62.9819 17.8207 63.1186 17.4052 63.392C16.9897 63.6655 16.6665 64.0668 16.4357 64.5959C16.2085 65.125 16.0948 65.7749 16.0948 66.5455C16.0948 67.3161 16.2085 67.9659 16.4357 68.495C16.6665 69.0241 16.9897 69.4254 17.4052 69.6989C17.8207 69.9723 18.3072 70.109 18.8647 70.109C19.4222 70.109 19.9087 69.9723 20.3242 69.6989C20.7397 69.4254 21.0611 69.0241 21.2884 68.495C21.5192 67.9659 21.6346 67.3161 21.6346 66.5455ZM25.6389 72V63.8182H27.8389V65.2457H27.9241C28.0732 64.7379 28.3236 64.3544 28.6752 64.0952C29.0267 63.8324 29.4316 63.701 29.8896 63.701C30.0033 63.701 30.1258 63.7081 30.2572 63.7223C30.3886 63.7365 30.504 63.756 30.6034 63.7809V65.7944C30.4969 65.7624 30.3495 65.734 30.1613 65.7092C29.9731 65.6843 29.8009 65.6719 29.6446 65.6719C29.3108 65.6719 29.0125 65.7447 28.7497 65.8903C28.4905 66.0323 28.2845 66.2312 28.1318 66.4869C27.9827 66.7425 27.9081 67.0373 27.9081 67.3711V72H25.6389ZM33.8754 72.1545C33.3533 72.1545 32.8881 72.0639 32.4798 71.8828C32.0714 71.6982 31.7482 71.4265 31.5103 71.0678C31.2759 70.7056 31.1587 70.2546 31.1587 69.7148C31.1587 69.2603 31.2422 68.8786 31.4091 68.5696C31.576 68.2607 31.8033 68.0121 32.0909 67.8239C32.3786 67.6357 32.7053 67.4936 33.071 67.3977C33.4403 67.3018 33.8274 67.2344 34.2322 67.1953C34.7081 67.1456 35.0916 67.0994 35.3828 67.0568C35.674 67.0107 35.8853 66.9432 36.0167 66.8544C36.1481 66.7656 36.2138 66.6342 36.2138 66.4602V66.4283C36.2138 66.0909 36.1072 65.8299 35.8942 65.6452C35.6847 65.4606 35.3864 65.3683 34.9993 65.3683C34.5909 65.3683 34.266 65.4588 34.0245 65.6399C33.783 65.8175 33.6232 66.0412 33.5451 66.3111L31.4464 66.1406C31.5529 65.6435 31.7624 65.2138 32.0749 64.8516C32.3874 64.4858 32.7905 64.2053 33.2841 64.0099C33.7813 63.8111 34.3565 63.7116 35.0099 63.7116C35.4645 63.7116 35.8995 63.7649 36.315 63.8714C36.734 63.978 37.1051 64.1431 37.4283 64.3668C37.755 64.5906 38.0124 64.8782 38.2006 65.2298C38.3888 65.5778 38.483 65.995 38.483 66.4815V72H36.331V70.8654H36.267C36.1357 71.1211 35.9599 71.3466 35.7397 71.5419C35.5195 71.7337 35.255 71.8846 34.946 71.9947C34.6371 72.1012 34.2802 72.1545 33.8754 72.1545ZM34.5252 70.5884C34.859 70.5884 35.1538 70.5227 35.4094 70.3913C35.6651 70.2564 35.8658 70.0753 36.0114 69.848C36.157 69.6207 36.2298 69.3633 36.2298 69.0756V68.2074C36.1587 68.2536 36.0611 68.2962 35.9368 68.3352C35.8161 68.3707 35.6793 68.4045 35.5266 68.4364C35.3739 68.4648 35.2212 68.4915 35.0685 68.5163C34.9158 68.5376 34.7773 68.5572 34.6531 68.5749C34.3867 68.614 34.1541 68.6761 33.9553 68.7614C33.7564 68.8466 33.6019 68.962 33.4918 69.1076C33.3817 69.2496 33.3267 69.4272 33.3267 69.6403C33.3267 69.9492 33.4386 70.1854 33.6623 70.3487C33.8896 70.5085 34.1772 70.5884 34.5252 70.5884ZM42.5126 67.2699V72H40.2434V63.8182H42.4061V65.2617H42.502C42.6831 64.7859 42.9867 64.4094 43.4128 64.1325C43.839 63.8519 44.3556 63.7116 44.9629 63.7116C45.5311 63.7116 46.0265 63.8359 46.449 64.0845C46.8716 64.3331 47.2001 64.6882 47.4345 65.1499C47.6689 65.608 47.786 66.1548 47.786 66.7905V72H45.5169V67.1953C45.5204 66.6946 45.3926 66.304 45.1333 66.0234C44.8741 65.7393 44.5172 65.5973 44.0627 65.5973C43.7573 65.5973 43.4874 65.663 43.253 65.7944C43.0222 65.9258 42.8411 66.1175 42.7097 66.3697C42.5819 66.6183 42.5162 66.9183 42.5126 67.2699ZM53.2606 75.2386C52.5255 75.2386 51.8952 75.1374 51.3696 74.935C50.8476 74.7362 50.4321 74.4645 50.1231 74.12C49.8142 73.7756 49.6135 73.3885 49.5212 72.9588L51.6199 72.6765C51.6839 72.8398 51.7851 72.9925 51.9236 73.1346C52.0621 73.2766 52.2449 73.3903 52.4722 73.4755C52.703 73.5643 52.9836 73.6087 53.3138 73.6087C53.8074 73.6087 54.214 73.4879 54.5336 73.2464C54.8568 73.0085 55.0184 72.609 55.0184 72.0479V70.5511H54.9225C54.8231 70.7784 54.6739 70.9933 54.4751 71.1957C54.2762 71.3981 54.0205 71.5632 53.708 71.6911C53.3955 71.8189 53.0226 71.8828 52.5894 71.8828C51.9751 71.8828 51.4157 71.7408 50.9115 71.4567C50.4108 71.169 50.0113 70.7305 49.713 70.141C49.4182 69.5479 49.2709 68.7987 49.2709 67.8931C49.2709 66.9663 49.4218 66.1921 49.7236 65.5707C50.0255 64.9492 50.4268 64.484 50.9275 64.1751C51.4317 63.8661 51.9839 63.7116 52.5841 63.7116C53.0422 63.7116 53.4257 63.7898 53.7346 63.946C54.0436 64.0987 54.2922 64.2905 54.4804 64.5213C54.6721 64.7486 54.8195 64.9723 54.9225 65.1925H55.0077V63.8182H57.2609V72.0799C57.2609 72.7759 57.0905 73.3583 56.7496 73.8271C56.4086 74.2958 55.9363 74.6474 55.3327 74.8817C54.7325 75.1197 54.0418 75.2386 53.2606 75.2386ZM53.3085 70.1783C53.6743 70.1783 53.9832 70.0877 54.2354 69.9066C54.491 69.7219 54.6863 69.4592 54.8213 69.1183C54.9598 68.7738 55.029 68.3619 55.029 67.8825C55.029 67.4031 54.9616 66.9876 54.8266 66.636C54.6917 66.2809 54.4964 66.0057 54.2407 65.8104C53.985 65.6151 53.6743 65.5174 53.3085 65.5174C52.9356 65.5174 52.6214 65.6186 52.3657 65.821C52.11 66.0199 51.9165 66.2969 51.7851 66.652C51.6537 67.0071 51.588 67.4173 51.588 67.8825C51.588 68.3548 51.6537 68.7631 51.7851 69.1076C51.92 69.4485 52.1135 69.7131 52.3657 69.9013C52.6214 70.0859 52.9356 70.1783 53.3085 70.1783ZM62.7954 72.1598C61.9537 72.1598 61.2293 71.9893 60.6221 71.6484C60.0184 71.304 59.5532 70.8175 59.2265 70.1889C58.8998 69.5568 58.7364 68.8093 58.7364 67.9464C58.7364 67.1048 58.8998 66.3661 59.2265 65.7305C59.5532 65.0948 60.0131 64.5994 60.6061 64.2443C61.2027 63.8892 61.9023 63.7116 62.7048 63.7116C63.2446 63.7116 63.7471 63.7987 64.2123 63.9727C64.681 64.1431 65.0894 64.4006 65.4374 64.745C65.789 65.0895 66.0624 65.5227 66.2577 66.0447C66.453 66.5632 66.5507 67.1705 66.5507 67.8665V68.4897H59.642V67.0835H64.4147C64.4147 66.7567 64.3437 66.4673 64.2016 66.2152C64.0596 65.9631 63.8625 65.766 63.6104 65.6239C63.3618 65.4783 63.0724 65.4055 62.7421 65.4055C62.3976 65.4055 62.0922 65.4854 61.8259 65.6452C61.5631 65.8015 61.3572 66.0128 61.208 66.2791C61.0589 66.5419 60.9825 66.8349 60.979 67.158V68.495C60.979 68.8999 61.0535 69.2496 61.2027 69.5444C61.3554 69.8391 61.5702 70.0664 61.8472 70.2262C62.1242 70.386 62.4527 70.4659 62.8327 70.4659C63.0848 70.4659 63.3156 70.4304 63.5251 70.3594C63.7346 70.2884 63.914 70.1818 64.0631 70.0398C64.2123 69.8977 64.3259 69.7237 64.404 69.5178L66.5028 69.6562C66.3962 70.1605 66.1778 70.6009 65.8476 70.9773C65.5209 71.3501 65.0983 71.6413 64.5798 71.8509C64.0649 72.0568 63.4701 72.1598 62.7954 72.1598Z" fill="white"/>
<path d="M34.58 43.095L43.1658 48.1974L28.7543 51.2075L34.58 43.095Z" fill="white"/>
<defs>
<filter id="filter0_d_116_284" x="33.9836" y="12.0369" width="36.0547" height="39.3807" filterUnits="userSpaceOnUse" color-interpolation-filters="sRGB">
<feFlood flood-opacity="0" result="BackgroundImageFix"/>
<feColorMatrix in="SourceAlpha" type="matrix" values="0 0 0 0 0 0 0 0 0 0 0 0 0 0 0 0 0 0 127 0" result="hardAlpha"/>
<feOffset dy="4"/>
<feGaussianBlur stdDeviation="2"/>
<feComposite in2="hardAlpha" operator="out"/>
<feColorMatrix type="matrix" values="0 0 0 0 0 0 0 0 0 0 0 0 0 0 0 0 0 0 0.25 0"/>
<feBlend mode="normal" in2="BackgroundImageFix" result="effect1_dropShadow_116_284"/>
<feBlend mode="normal" in="SourceGraphic" in2="effect1_dropShadow_116_284" result="shape"/>
</filter>
</defs>
</svg>
