<svg width="18" height="18" viewBox="0 0 18 18" fill="none" xmlns="http://www.w3.org/2000/svg">
<path d="M4.89966 11C7.1088 11 8.89966 9.20914 8.89966 7C8.89966 4.79086 7.1088 3 4.89966 3C2.69052 3 0.899658 4.79086 0.899658 7C0.899658 9.20914 2.69052 11 4.89966 11Z" fill="#F24E1E"/>
<path fill-rule="evenodd" clip-rule="evenodd" d="M10.7638 16.813C10.7848 16.918 10.8738 17 10.9818 17H12.7668C13.3688 17 13.8208 16.471 13.6198 15.904C13.1998 14.72 12.1948 13 9.89977 13C9.77377 13 9.65277 13.005 9.53477 13.015C9.15877 13.047 9.06277 13.509 9.31477 13.789C10.2198 14.794 10.5998 15.992 10.7638 16.813ZM9.42777 15.833C9.67077 16.416 9.19177 17 8.55977 17H7.03277C6.43077 17 5.97877 16.471 6.17977 15.904C6.36977 15.368 6.67977 14.723 7.17477 14.176C7.3079 14.0286 7.49405 13.9401 7.6924 13.9297C7.89074 13.9194 8.08508 13.9882 8.23277 14.121C8.80477 14.627 9.18077 15.243 9.42777 15.833Z" fill="#F24E1E"/>
<path d="M4.89969 13C8.47169 13 9.49169 15.551 9.78269 17.009C9.89169 17.55 9.45269 18 8.89969 18H0.899686C0.347686 18 -0.0923141 17.55 0.0166859 17.009C0.307686 15.55 1.32769 13 4.89969 13Z" fill="#F24E1E"/>
<path fill-rule="evenodd" clip-rule="evenodd" d="M8.38175 10.5879C8.8627 10.1224 9.24497 9.56482 9.50577 8.94838C9.76658 8.33194 9.90056 7.66929 9.89975 6.99995C9.89975 6.29995 9.75575 5.63195 9.49575 5.02695C9.96948 4.96273 10.4517 5.01265 10.9022 5.17257C11.3528 5.33248 11.7586 5.59775 12.0858 5.94626C12.413 6.29478 12.6522 6.71646 12.7835 7.17616C12.9147 7.63586 12.9342 8.12027 12.8403 8.58902C12.7464 9.05777 12.5418 9.4973 12.2436 9.87097C11.9454 10.2446 11.5623 10.5416 11.126 10.7372C10.6898 10.9328 10.2132 11.0213 9.7358 10.9953C9.25843 10.9694 8.79419 10.8297 8.38175 10.5879ZM7.61175 9.93995C8.0183 9.56578 8.3427 9.11126 8.56442 8.60517C8.78613 8.09909 8.90032 7.55247 8.89975 6.99995C8.89975 6.40295 8.76975 5.83695 8.53475 5.32795C8.1319 5.53377 7.78081 5.82803 7.50776 6.18871C7.23471 6.5494 7.04676 6.96716 6.95799 7.41075C6.86921 7.85434 6.88191 8.31226 6.99512 8.75024C7.10833 9.18823 7.31913 9.59494 7.61175 9.93995Z" fill="#F24E1E"/>
<path d="M14.8997 1V5M16.8997 3H12.8997" stroke="#F24E1E" stroke-width="2" stroke-linecap="round"/>
</svg>
