<svg width="20" height="23" viewBox="0 0 20 23" fill="none" xmlns="http://www.w3.org/2000/svg">
<path fill-rule="evenodd" clip-rule="evenodd" d="M11.5 3H8.49996C8.30105 3 8.11029 3.07902 7.96964 3.21967C7.82898 3.36032 7.74996 3.55109 7.74996 3.75V4.5H12.25V3.75C12.25 3.55109 12.1709 3.36032 12.0303 3.21967C11.8896 3.07902 11.6989 3 11.5 3ZM14.5 4.5V3.75C14.5 2.95435 14.1839 2.19129 13.6213 1.62868C13.0587 1.06607 12.2956 0.75 11.5 0.75H8.49996C7.70432 0.75 6.94125 1.06607 6.37864 1.62868C5.81604 2.19129 5.49997 2.95435 5.49996 3.75V4.5H1.37646C1.0781 4.5 0.791948 4.61853 0.58097 4.8295C0.369991 5.04048 0.251465 5.32663 0.251465 5.625C0.251465 5.92337 0.369991 6.20952 0.58097 6.4205C0.791948 6.63147 1.0781 6.75 1.37646 6.75H1.84446L2.31996 18.1875C2.36835 19.3477 2.86332 20.4442 3.7014 21.2479C4.53948 22.0516 5.6558 22.5002 6.81696 22.5H13.1845C14.3454 22.4998 15.4613 22.051 16.2991 21.2474C17.1368 20.4437 17.6316 19.3474 17.68 18.1875L18.157 6.75H18.625C18.9233 6.75 19.2095 6.63147 19.4205 6.4205C19.6314 6.20952 19.75 5.92337 19.75 5.625C19.75 5.32663 19.6314 5.04048 19.4205 4.8295C19.2095 4.61853 18.9233 4.5 18.625 4.5H14.5ZM15.904 6.75H4.09597L4.56847 18.093C4.59247 18.6732 4.83987 19.2217 5.25893 19.6237C5.67799 20.0257 6.23626 20.2501 6.81696 20.25H13.1845C13.7649 20.2497 14.3228 20.0251 14.7415 19.6232C15.1603 19.2212 15.4075 18.673 15.4315 18.093L15.904 6.75ZM6.62496 9.75V17.25C6.62497 17.5484 6.74349 17.8345 6.95447 18.0455C7.16545 18.2565 7.4516 18.375 7.74996 18.375C8.04833 18.375 8.33448 18.2565 8.54546 18.0455C8.75644 17.8345 8.87496 17.5484 8.87496 17.25V9.75C8.87496 9.45163 8.75644 9.16548 8.54546 8.9545C8.33448 8.74353 8.04833 8.625 7.74996 8.625C7.4516 8.625 7.16545 8.74353 6.95447 8.9545C6.74349 9.16548 6.62497 9.45163 6.62496 9.75ZM12.25 8.625C12.5483 8.625 12.8345 8.74353 13.0455 8.9545C13.2564 9.16548 13.375 9.45163 13.375 9.75V17.25C13.375 17.5484 13.2564 17.8345 13.0455 18.0455C12.8345 18.2565 12.5483 18.375 12.25 18.375C11.9516 18.375 11.6654 18.2565 11.4545 18.0455C11.2435 17.8345 11.125 17.5484 11.125 17.25V9.75C11.125 9.45163 11.2435 9.16548 11.4545 8.9545C11.6654 8.74353 11.9516 8.625 12.25 8.625Z" fill="#F24E1E"/>
</svg>
