<svg width="32" height="32" viewBox="0 0 32 32" fill="none" xmlns="http://www.w3.org/2000/svg">
<path d="M16 0C7.2 0 0 6.36444 0 14.2222C0.0401735 16.1115 0.455403 17.9675 1.21602 19.6578C1.97663 21.348 3.06386 22.8307 4.4 24C4.4 25.0667 3.728 27.8578 0 32C3.792 31.8044 7.424 30.2222 10.352 27.5556C12.176 28.1422 14.096 28.4444 16 28.4444C24.8 28.4444 32 22.08 32 14.2222C32 6.36444 24.8 0 16 0ZM16 24.8889C8.928 24.8889 3.2 20.1067 3.2 14.2222C3.2 8.33778 8.928 3.55556 16 3.55556C23.072 3.55556 28.8 8.33778 28.8 14.2222C28.8 20.1067 23.072 24.8889 16 24.8889Z" fill="#F24E1E"/>
</svg>
