<svg width="28" height="32" viewBox="0 0 28 32" fill="none" xmlns="http://www.w3.org/2000/svg">
<path fill-rule="evenodd" clip-rule="evenodd" d="M23.4583 0.00228572H4.976C3.67988 0.00237237 2.43489 0.507951 1.50568 1.41155C0.576467 2.31516 0.0363009 3.54553 0 4.84114V26.7246C0.00121169 28.0435 0.526002 29.308 1.45905 30.2402C2.3921 31.1724 3.65707 31.696 4.976 31.696H25.632C26.0867 31.696 26.5227 31.5154 26.8442 31.1939C27.1657 30.8724 27.3463 30.4364 27.3463 29.9817C27.3463 29.5271 27.1657 29.091 26.8442 28.7695C26.5227 28.448 26.0867 28.2674 25.632 28.2674H25.1749V24.7726C25.8273 24.4524 26.3767 23.9556 26.7606 23.3385C27.1445 22.7215 27.3474 22.009 27.3463 21.2823V3.888C27.3463 3.37742 27.2457 2.87184 27.0503 2.40013C26.8549 1.92841 26.5686 1.4998 26.2075 1.13877C25.8465 0.777735 25.4179 0.491347 24.9462 0.295956C24.4744 0.100566 23.9689 0 23.4583 0V0.00228572ZM3.88114 27.8126C3.66525 27.596 3.51835 27.3204 3.45898 27.0204C3.39961 26.7205 3.43044 26.4097 3.54758 26.1272C3.66472 25.8448 3.86291 25.6033 4.11714 25.4334C4.37136 25.2635 4.67023 25.1728 4.976 25.1726H21.744V28.2674H4.976C4.77218 28.2676 4.57033 28.2275 4.38205 28.1495C4.19377 28.0714 4.02505 27.9569 3.88114 27.8126ZM17.6183 18.8846C16.8147 19.0739 15.9718 19.0026 15.2114 18.6811C12.1362 16.8372 9.5628 14.2638 7.71886 11.1886C7.39984 10.427 7.33019 9.58398 7.5199 8.78038C7.70961 7.97679 8.14893 7.25391 8.77486 6.71543L9.33714 6.15314C9.53378 5.90767 9.81772 5.74775 10.1296 5.70685C10.4414 5.66595 10.757 5.74724 11.0103 5.93371L12.8297 7.75314C13.0162 8.00642 13.0975 8.32201 13.0566 8.63386C13.0157 8.94571 12.8558 9.22966 12.6103 9.42629C12.3652 9.62324 12.2057 9.90735 12.1652 10.2192C12.1247 10.531 12.2064 10.8464 12.3931 11.0994L15.3006 14.0069C15.5536 14.1936 15.869 14.2753 16.1808 14.2348C16.4926 14.1943 16.7768 14.0348 16.9737 13.7897C17.1707 13.5446 17.4548 13.3851 17.7666 13.3446C18.0784 13.3042 18.3939 13.3858 18.6469 13.5726L20.4663 15.3897C20.6528 15.643 20.734 15.9586 20.6932 16.2704C20.6523 16.5823 20.4923 16.8662 20.2469 17.0629L19.6846 17.6274C19.1475 18.255 18.4246 18.6953 17.6206 18.8846H17.6183Z" fill="#F24E1E"/>
</svg>
