<svg width="27" height="31" viewBox="0 0 27 31" fill="none" xmlns="http://www.w3.org/2000/svg">
<path d="M25.6937 30.184H4.368C3.47475 30.184 2.61809 29.8292 1.98646 29.1975C1.35484 28.5659 1 27.7092 1 26.816C1 25.9228 1.35484 25.0661 1.98646 24.4345C2.61809 23.8028 3.47475 23.448 4.368 23.448H23.4491M23.4491 23.448C24.0444 23.448 24.6154 23.2115 25.0363 22.7906C25.4572 22.3696 25.6937 21.7987 25.6937 21.2034V3.24457C25.6937 2.64927 25.4572 2.07836 25.0363 1.65742C24.6154 1.23648 24.0444 1 23.4491 1H4.368C3.49068 1.00029 2.64813 1.34301 2.01971 1.9552C1.39129 2.5674 1.02666 3.4007 1.00343 4.27771V26.7257M23.4491 23.448V30.184" stroke="#F24E1E" stroke-linecap="round" stroke-linejoin="round"/>
<path d="M14.4983 18.3257C15.2592 18.6479 16.1028 18.7194 16.9071 18.53C17.7113 18.3405 18.4344 17.8999 18.9714 17.272L19.5337 16.7075C19.7792 16.5108 19.9391 16.2269 19.98 15.915C20.0209 15.6032 19.9396 15.2876 19.7531 15.0343L17.9337 13.2172C17.6807 13.0304 17.3653 12.9488 17.0535 12.9892C16.7416 13.0297 16.4575 13.1892 16.2606 13.4343C16.0637 13.6788 15.78 13.8378 15.4687 13.8783C15.1575 13.9188 14.8426 13.8375 14.5897 13.6515L11.6777 10.7463C11.491 10.4933 11.4093 10.1779 11.4498 9.86607C11.4903 9.55423 11.6497 9.27013 11.8949 9.07317C12.1403 8.87654 12.3003 8.59259 12.3412 8.28074C12.3821 7.96889 12.3008 7.65331 12.1143 7.40003L10.2949 5.5806C10.0416 5.39413 9.726 5.31283 9.41415 5.35373C9.1023 5.39463 8.81835 5.55455 8.62172 5.80003L8.06172 6.35774C7.43579 6.89622 6.99647 7.6191 6.80676 8.42269C6.61705 9.22629 6.6867 10.0693 7.00572 10.8309C8.84966 13.9061 11.4231 16.4795 14.4983 18.3235V18.3257Z" stroke="#F24E1E" stroke-linecap="round" stroke-linejoin="round"/>
</svg>
