<svg width="24" height="16" viewBox="0 0 24 16" fill="none" xmlns="http://www.w3.org/2000/svg">
<path d="M7.86491 0C2.31321 0 0 0.929143 0 1.67886V14.2857C0 15.0183 2.31321 16 7.86491 16C13.4166 16 15.7298 15.0709 15.7298 14.3211V1.71429C15.7298 0.981714 13.4166 0 7.86491 0ZM23.4791 0.0354287C23.3235 0.0430846 23.173 0.105325 23.0451 0.214857L17.0308 5C16.7994 5.21486 16.6551 5.56914 16.6551 5.92914V10.0709C16.6551 10.4309 16.7994 10.784 17.0308 11L23.0451 15.7863C23.208 15.9383 24 16.4149 24 14.8571V1.14286C24 0.243429 23.7492 0.0217144 23.4791 0.0354287Z" fill="#F24E1E"/>
</svg>
