<svg width="24" height="24" viewBox="0 0 24 24" fill="none" xmlns="http://www.w3.org/2000/svg">
<g clip-path="url(#clip0_4_189)">
<path d="M12 24C15.1826 24 18.2348 22.7357 20.4853 20.4853C22.7357 18.2348 24 15.1826 24 12C24 8.8174 22.7357 5.76516 20.4853 3.51472C18.2348 1.26428 15.1826 0 12 0C8.8174 0 5.76516 1.26428 3.51472 3.51472C1.26428 5.76516 0 8.8174 0 12C0 15.1826 1.26428 18.2348 3.51472 20.4853C5.76516 22.7357 8.8174 24 12 24ZM7.69219 15.2578C8.53125 16.2281 9.96562 17.25 12 17.25C14.0344 17.25 15.4688 16.2281 16.3078 15.2578C16.5797 14.9438 17.0531 14.9109 17.3672 15.1828C17.6812 15.4547 17.7141 15.9281 17.4422 16.2422C16.3969 17.4422 14.5828 18.75 12 18.75C9.41719 18.75 7.60312 17.4422 6.55781 16.2422C6.28594 15.9281 6.31875 15.4547 6.63281 15.1828C6.94688 14.9109 7.42031 14.9438 7.69219 15.2578ZM6.76875 9.75C6.76875 9.35218 6.92679 8.97064 7.20809 8.68934C7.48939 8.40804 7.87092 8.25 8.26875 8.25C8.66657 8.25 9.04811 8.40804 9.32941 8.68934C9.61071 8.97064 9.76875 9.35218 9.76875 9.75C9.76875 10.1478 9.61071 10.5294 9.32941 10.8107C9.04811 11.092 8.66657 11.25 8.26875 11.25C7.87092 11.25 7.48939 11.092 7.20809 10.8107C6.92679 10.5294 6.76875 10.1478 6.76875 9.75ZM15.7687 8.25C16.1666 8.25 16.5481 8.40804 16.8294 8.68934C17.1107 8.97064 17.2687 9.35218 17.2687 9.75C17.2687 10.1478 17.1107 10.5294 16.8294 10.8107C16.5481 11.092 16.1666 11.25 15.7687 11.25C15.3709 11.25 14.9894 11.092 14.7081 10.8107C14.4268 10.5294 14.2687 10.1478 14.2687 9.75C14.2687 9.35218 14.4268 8.97064 14.7081 8.68934C14.9894 8.40804 15.3709 8.25 15.7687 8.25Z" fill="#F24E1E"/>
</g>
<defs>
<clipPath id="clip0_4_189">
<rect width="24" height="24" fill="white"/>
</clipPath>
</defs>
</svg>
