<svg width="32" height="32" viewBox="0 0 32 32" fill="none" xmlns="http://www.w3.org/2000/svg">
<path d="M0 32C0 28.7669 1.28539 25.6662 3.5734 23.38C5.86141 21.0939 8.96462 19.8095 12.2004 19.8095C15.4361 19.8095 18.5393 21.0939 20.8273 23.38C23.1153 25.6662 24.4007 28.7669 24.4007 32H0ZM12.2004 18.2857C7.14483 18.2857 3.05009 14.1943 3.05009 9.14286C3.05009 4.09143 7.14483 0 12.2004 0C17.2559 0 21.3506 4.09143 21.3506 9.14286C21.3506 14.1943 17.2559 18.2857 12.2004 18.2857ZM23.4293 21.6884C25.762 22.2875 27.8462 23.6066 29.385 25.458C30.9239 27.3094 31.839 29.5987 32 32H27.4508C27.4508 28.0229 25.9258 24.4023 23.4293 21.6884ZM20.3441 18.2202C21.6221 17.0781 22.6441 15.679 23.3432 14.1147C24.0423 12.5503 24.4027 10.8561 24.4007 9.14286C24.4039 7.06052 23.8709 5.01238 22.8528 3.19543C24.5801 3.54223 26.1339 4.476 27.2502 5.83801C28.3664 7.20003 28.9762 8.90625 28.9758 10.6667C28.9762 11.7523 28.7444 12.8255 28.2958 13.8144C27.8473 14.8032 27.1923 15.6848 26.375 16.4001C25.5576 17.1153 24.5966 17.6478 23.5565 17.9617C22.5164 18.2756 21.4211 18.3637 20.3441 18.2202Z" fill="#F24E1E"/>
</svg>
