<svg width="32" height="32" viewBox="0 0 32 32" fill="none" xmlns="http://www.w3.org/2000/svg">
<path d="M0 32C0 28.7669 1.28435 25.6662 3.57051 23.38C5.85667 21.0939 8.95736 19.8095 12.1905 19.8095C15.4236 19.8095 18.5243 21.0939 20.8104 23.38C23.0966 25.6662 24.381 28.7669 24.381 32H21.3333C21.3333 29.5752 20.3701 27.2496 18.6555 25.535C16.9408 23.8204 14.6153 22.8571 12.1905 22.8571C9.76564 22.8571 7.44012 23.8204 5.7255 25.535C4.01088 27.2496 3.04762 29.5752 3.04762 32H0ZM12.1905 18.2857C7.13905 18.2857 3.04762 14.1943 3.04762 9.14286C3.04762 4.09143 7.13905 0 12.1905 0C17.2419 0 21.3333 4.09143 21.3333 9.14286C21.3333 14.1943 17.2419 18.2857 12.1905 18.2857ZM12.1905 15.2381C15.5581 15.2381 18.2857 12.5105 18.2857 9.14286C18.2857 5.77524 15.5581 3.04762 12.1905 3.04762C8.82286 3.04762 6.09524 5.77524 6.09524 9.14286C6.09524 12.5105 8.82286 15.2381 12.1905 15.2381ZM24.8137 20.8808C26.9552 21.8452 28.7725 23.4076 30.0474 25.3801C31.3222 27.3527 32.0002 29.6514 32 32H28.9524C28.9527 30.2384 28.4443 28.5143 27.4881 27.0348C26.532 25.5553 25.1689 24.3835 23.5627 23.6602L24.8137 20.8808ZM23.7653 3.67695C25.3006 4.30979 26.6133 5.38444 27.5368 6.76454C28.4603 8.14464 28.953 9.76799 28.9524 11.4286C28.953 13.5197 28.1717 15.5356 26.762 17.0801C25.3522 18.6246 23.4159 19.5862 21.3333 19.776V16.7086C22.4624 16.5469 23.5099 16.0275 24.322 15.2266C25.1341 14.4257 25.6681 13.3856 25.8456 12.2589C26.023 11.1323 25.8346 9.97836 25.308 8.96663C24.7814 7.95491 23.9443 7.13866 22.9196 6.63771L23.7653 3.67695Z" fill="#F24E1E"/>
</svg>
