<svg width="22" height="22" viewBox="0 0 22 22" fill="none" xmlns="http://www.w3.org/2000/svg">
<path d="M11 0.333252C8.89038 0.333252 6.82809 0.958841 5.07396 2.13091C3.31984 3.30298 1.95267 4.96888 1.14533 6.91796C0.337996 8.86704 0.12676 11.0118 0.538336 13.0809C0.949912 15.15 1.96581 17.0506 3.45757 18.5424C4.94933 20.0342 6.84995 21.0501 8.91908 21.4616C10.9882 21.8732 13.1329 21.662 15.082 20.8546C17.0311 20.0473 18.697 18.6801 19.8691 16.926C21.0411 15.1719 21.6667 13.1096 21.6667 10.9999C21.6667 8.17094 20.5429 5.45783 18.5425 3.45745C16.5421 1.45706 13.829 0.333252 11 0.333252ZM16.3334 15.0666C16.5102 15.2434 16.6095 15.4832 16.6095 15.7333C16.6095 15.9833 16.5102 16.2231 16.3334 16.3999C16.1566 16.5767 15.9168 16.6761 15.6667 16.6761C15.4167 16.6761 15.1769 16.5767 15 16.3999L11 12.3999L7.00005 16.4133C6.9125 16.5008 6.80856 16.5702 6.69418 16.6176C6.57979 16.665 6.45719 16.6894 6.33338 16.6894C6.20957 16.6894 6.08697 16.665 5.97258 16.6176C5.8582 16.5702 5.75426 16.5008 5.66671 16.4133C5.57916 16.3257 5.50972 16.2218 5.46234 16.1074C5.41496 15.993 5.39057 15.8704 5.39057 15.7466C5.39057 15.6228 5.41496 15.5002 5.46234 15.3858C5.50972 15.2714 5.57916 15.1675 5.66671 15.0799L9.66671 11.0533L5.55338 6.90659C5.37657 6.72977 5.27724 6.48997 5.27724 6.23992C5.27724 5.98987 5.37657 5.75006 5.55338 5.57325C5.73019 5.39644 5.97 5.29711 6.22005 5.29711C6.47009 5.29711 6.7099 5.39644 6.88671 5.57325L11 9.73325L15.1134 5.61992C15.2009 5.53237 15.3049 5.46292 15.4192 5.41554C15.5336 5.36816 15.6562 5.34378 15.78 5.34378C15.9039 5.34378 16.0265 5.36816 16.1408 5.41554C16.2552 5.46292 16.3592 5.53237 16.4467 5.61992C16.5343 5.70747 16.6037 5.8114 16.6511 5.92579C16.6985 6.04017 16.7229 6.16277 16.7229 6.28659C16.7229 6.4104 16.6985 6.533 16.6511 6.64738C16.6037 6.76177 16.5343 6.8657 16.4467 6.95325L12.3334 11.0533L16.3334 15.0666Z" fill="#F24E1E"/>
</svg>
