<svg width="22" height="21" viewBox="0 0 22 21" fill="none" xmlns="http://www.w3.org/2000/svg">
<path d="M14 5.48202C14 4.06202 13.5 2.75202 12.67 1.72202C13.09 1.58202 13.53 1.48202 14 1.48202C16.21 1.48202 18 3.27202 18 5.48202C18 7.69202 16.21 9.48202 14 9.48202H13.82L13.05 8.71202C13.65 7.77202 14 6.66202 14 5.48202ZM6.24 1.89202C6.98866 1.52348 7.83391 1.39856 8.65717 1.53478C9.48043 1.671 10.2404 2.06153 10.8304 2.65158C11.4205 3.24163 11.811 4.00159 11.9472 4.82485C12.0835 5.64811 11.9585 6.49336 11.59 7.24202L6.24 1.89202ZM20.19 18.672C20.377 18.859 20.482 19.1126 20.482 19.377C20.482 19.6414 20.377 19.895 20.19 20.082C20.003 20.269 19.7494 20.374 19.485 20.374C19.2206 20.374 18.967 20.269 18.78 20.082L15.79 17.092C15.6968 17.213 15.5772 17.3111 15.4403 17.3787C15.3033 17.4463 15.1527 17.4817 15 17.482H1C0.45 17.482 0 17.032 0 16.482V14.482C0 11.822 5.33 10.482 8 10.482C8.37 10.482 8.8 10.512 9.25 10.562L8.17 9.48202H8C5.79 9.48202 4 7.69202 4 5.48202V5.31202L0.39 1.70202C0.203022 1.51504 0.0979794 1.26145 0.0979794 0.997021C0.0979794 0.732594 0.203022 0.478998 0.39 0.292021C0.576978 0.105043 0.830574 0 1.095 0C1.35943 0 1.61302 0.105043 1.8 0.292021L20.19 18.672ZM17.89 13.552C17.6 12.332 16.76 11.362 15.66 10.612C18.42 11.012 22 12.302 22 14.482V16.482C22 16.802 21.85 17.082 21.62 17.272L17.89 13.552Z" fill="#F24E1E"/>
</svg>
